<?xml version="1.0" encoding="UTF-8"?>
<svg width="1200pt" height="1200pt" version="1.1" viewBox="0 0 1200 1200" xmlns="http://www.w3.org/2000/svg">
 <path d="m578.26 222.56h-112.03c-108.75 0-213 43.219-289.87 120.1-76.875 76.922-120.1 181.18-120.1 289.92v65.391c0 108.75 43.219 213.05 120.1 289.92 76.875 76.922 181.13 120.1 289.87 120.1h267.52c108.75 0 213.05-43.172 289.92-120.1 76.875-76.875 120.1-181.18 120.1-289.92v-65.391c0-108.75-43.219-213-120.1-289.92-76.875-76.875-181.18-120.1-289.92-120.1h-117.75c-1.4531-22.172 3.5156-66.891 59.812-95.016 9.2344-4.6406 12.984-15.891 8.3438-25.172-4.5938-9.2344-15.891-12.984-25.125-8.3906-74.297 37.172-82.688 95.859-80.766 128.58zm528 461.44v13.969c0 98.812-39.281 193.55-109.12 263.39-69.844 69.891-164.58 109.12-263.39 109.12h-267.52c-98.812 0-193.5-39.234-263.39-109.12-69.844-69.844-109.08-164.58-109.08-263.39v-13.969zm-525 66.328v60.281c0 10.359 8.3906 18.75 18.75 18.75 10.359 0 18.75-8.3906 18.75-18.75v-60.281c0-10.312-8.3906-18.75-18.75-18.75-10.359 0-18.75 8.4375-18.75 18.75zm-234.71 0v60.281c0 10.359 8.3906 18.75 18.75 18.75s18.75-8.3906 18.75-18.75v-60.281c0-10.312-8.3906-18.75-18.75-18.75s-18.75 8.4375-18.75 18.75zm469.36 0v60.281c0 10.359 8.4375 18.75 18.75 18.75 10.359 0 18.75-8.3906 18.75-18.75v-60.281c0-10.312-8.3906-18.75-18.75-18.75-10.312 0-18.75 8.4375-18.75 18.75zm-352.03 0v60.281c0 10.359 8.3906 18.75 18.75 18.75s18.75-8.3906 18.75-18.75v-60.281c0-10.312-8.3906-18.75-18.75-18.75s-18.75 8.4375-18.75 18.75zm-234.71 0v60.281c0 10.359 8.3906 18.75 18.75 18.75s18.75-8.3906 18.75-18.75v-60.281c0-10.312-8.3906-18.75-18.75-18.75s-18.75 8.4375-18.75 18.75zm469.4 0v60.281c0 10.359 8.3906 18.75 18.75 18.75 10.359 0 18.75-8.3906 18.75-18.75v-60.281c0-10.312-8.3906-18.75-18.75-18.75-10.359 0-18.75 8.4375-18.75 18.75zm234.71 0v60.281c0 10.359 8.4375 18.75 18.75 18.75 10.359 0 18.75-8.3906 18.75-18.75v-60.281c0-10.312-8.3906-18.75-18.75-18.75-10.312 0-18.75 8.4375-18.75 18.75zm93.188-348.14c-80.438 3.375-164.58 3.8438-229.55-4.9688-32.812-4.4062-60.984-11.531-82.266-21.281-16.828 47.062-56.297 74.859-109.17 91.078-3.5625 1.0781-7.4062 1.0781-11.016 0-52.828-16.219-92.297-44.016-109.12-91.078-21.656 10.031-50.625 17.625-84.328 22.594-66 9.7969-151.03 10.828-230.58 7.6406-49.453 64.641-76.688 144.14-76.688 226.4v13.922h1012.5v-13.922c-0.046875-14.766-0.89062-29.578-2.6719-44.203-2.8594-24-8.0625-47.672-15.469-70.641-8.2969-25.594-19.406-50.297-32.953-73.453-8.5781-14.625-18.188-28.641-28.594-41.953zm-292.74-142.13h-267.52c-98.812 0-193.5 39.234-263.39 109.12-0.1875 0.1875-0.32812 0.375-0.51562 0.51562 67.969 1.7344 137.53 0 193.22-8.25 39.891-5.9531 72.281-14.531 89.719-28.922 5.1562-4.3125 12.281-5.4844 18.516-3.0938 6.3281 2.3438 10.828 7.875 11.953 14.484 7.5 46.172 39.984 70.828 84.281 85.453 44.25-14.625 76.734-39.281 84.281-85.453 1.0781-6.6094 5.625-12.141 11.906-14.484 6.2812-2.3906 13.359-1.2188 18.516 3.0938 17.391 14.344 48.656 22.312 87.234 27.516 54.797 7.4531 123.56 7.9688 191.86 5.8125-69.516-67.734-162.84-105.8-260.06-105.8z" fill-rule="evenodd"/>
</svg>
