<?xml version="1.0" encoding="UTF-8"?>
<svg width="1200pt" height="1200pt" version="1.1" viewBox="0 0 1200 1200" xmlns="http://www.w3.org/2000/svg">
 <path d="m600 293.45c-43.5-24.801-91.602-38.449-142.1-38.449-229.6 0-345.4 193.7-345.4 437.5s157.75 437.5 345.4 437.5h284.2c187.65 0 345.4-193.7 345.4-437.5s-115.8-437.5-345.4-437.5c-50.5 0-98.602 13.648-142.1 38.449zm-21.051 75.199c12.699 8.6484 29.398 8.6484 42.102 0 36.25-24.551 77.352-38.648 121.05-38.648 186.25 0 270.4 164.7 270.4 362.5s-118.15 362.5-270.4 362.5h-284.2c-152.25 0-270.4-164.7-270.4-362.5s84.148-362.5 270.4-362.5c43.699 0 84.801 14.102 121.05 38.648z" fill-rule="evenodd"/>
 <path d="m562.5 317.15v0.35156c0 2.6484 0.30078 5.25 0.80078 7.75 1 5.0508 2.8984 9.3008 5.3008 12.75 6.6992 10.25 18.301 17 31.398 17 0 0 37.5-2.9492 37.5-38.148v-49.352c0-51.148 24.102-99.301 65-130 16.551-12.398 19.898-35.949 7.5-52.5s-35.949-19.898-52.5-7.5c-59.801 44.852-95 115.25-95 190v49.352 0.30078z" fill-rule="evenodd"/>
 <path d="m562.6 314.85c-0.050781 0.89844-0.10156 1.75-0.10156 2.6484 0 20.699 16.801 37.5 37.5 37.5 0 0 37.5-6.8008 37.5-43.352 0-102.25-65.398-193-162.4-225.3-19.648-6.5508-40.898 4.0508-47.449 23.699-6.5508 19.648 4.1016 40.898 23.75 47.449 66.352 22.102 111.1 84.199 111.1 154.15l0.10156 3.1992z" fill-rule="evenodd"/>
 <path d="m1050 655h-900c-20.699 0-37.5 16.801-37.5 37.5s16.801 37.5 37.5 37.5h900c20.699 0 37.5-16.801 37.5-37.5s-16.801-37.5-37.5-37.5z" fill-rule="evenodd"/>
 <path d="m637.5 692.5v-150c0-20.699-16.801-37.5-37.5-37.5s-37.5 16.801-37.5 37.5v150c0 20.699 16.801 37.5 37.5 37.5s37.5-16.801 37.5-37.5z" fill-rule="evenodd"/>
 <path d="m701.5 891-75-75c-14.648-14.648-38.352-14.648-53 0l-75 75c-14.648 14.602-14.648 38.398 0 53 14.602 14.648 38.398 14.648 53 0l48.5-48.449 48.5 48.449c14.602 14.648 38.398 14.648 53 0 14.648-14.602 14.648-38.398 0-53z" fill-rule="evenodd"/>
 <path d="m837.5 692.5v-100c0-20.699-16.801-37.5-37.5-37.5s-37.5 16.801-37.5 37.5v100c0 20.699 16.801 37.5 37.5 37.5s37.5-16.801 37.5-37.5z" fill-rule="evenodd"/>
 <path d="m437.5 692.5v-100c0-20.699-16.801-37.5-37.5-37.5s-37.5 16.801-37.5 37.5v100c0 20.699 16.801 37.5 37.5 37.5s37.5-16.801 37.5-37.5z" fill-rule="evenodd"/>
</svg>
